<svg width="128" height="128" viewBox="0 0 128 128" fill="none" xmlns="http://www.w3.org/2000/svg">
<path d="M27.1289 82.2109V81.7109H26.6289H20.7349V66.1074C20.7349 63.1068 21.0162 60.531 21.5708 58.3728C22.1594 56.2057 22.9424 54.4503 23.9083 53.091C24.9116 51.7238 26.0368 50.7406 27.2788 50.1196L27.2788 50.1196L27.2829 50.1175C28.5706 49.4587 29.9293 49.1304 31.3652 49.1304C33.35 49.1304 34.8143 49.6985 35.8333 50.774L35.8333 50.7741L35.8379 50.7789C36.8467 51.8156 37.4014 53.479 37.4014 55.877V81.7109H31.5073H31.0073V82.2109V86V86.5H31.5073H52.8208H53.3208V86V82.2109V81.7109H52.8208H46.9268V66.1074C46.9268 63.1069 47.2081 60.5311 47.7627 58.3729C48.3512 56.2057 49.1343 54.4503 50.1002 53.091C51.1035 51.7238 52.2287 50.7406 53.4707 50.1196L53.4748 50.1175C54.7625 49.4587 56.1212 49.1304 57.5571 49.1304C59.5419 49.1304 61.0062 49.6985 62.0252 50.774L62.0252 50.7741L62.0298 50.7789C63.0376 51.8146 63.5933 53.4927 63.5933 55.9243V81.7109H57.6992H57.1992V82.2109V86V86.5H57.6992H79.4863H79.9863V86V82.2109V81.7109H79.4863H73.1187V57.2505C73.1187 53.035 72.0563 49.7223 69.859 47.3901C67.6786 45.0104 64.3633 43.8677 60.02 43.8677C56.4407 43.8677 53.4449 44.6743 51.0679 46.3247C49.0107 47.7447 47.3645 49.7671 46.1187 52.368C45.3991 49.7086 44.1452 47.6526 42.3281 46.2458C40.2529 44.6391 37.3989 43.8677 33.8281 43.8677C30.3827 43.8677 27.5164 44.592 25.2657 46.0807C23.4422 47.2611 21.9332 48.8642 20.7349 50.8775V45.6465V45.1465H20.2349H4.60498H4.10498V45.6465V49.4355V49.9355H4.60498H11.2095V81.7109H4.60498H4.10498V82.2109V86V86.5H4.60498H26.6289H27.1289V86V82.2109ZM123.502 72.9871L123.593 72.5694L123.194 72.4144C122.605 72.1852 121.985 71.9896 121.335 71.8269C120.68 71.6633 120.025 71.5486 119.369 71.483L118.933 71.4393L118.832 71.8659C118.335 73.9788 117.671 75.7463 116.849 77.1782L116.847 77.1812C116.051 78.5887 115.126 79.7227 114.075 80.5937C113.052 81.4365 111.91 82.0525 110.646 82.4437C109.371 82.8384 108.016 83.0371 106.578 83.0371C104.983 83.0371 103.521 82.8227 102.188 82.3991C100.9 81.959 99.7621 81.1517 98.7743 79.956C97.8217 78.7335 97.0416 77.0217 96.453 74.7923C95.899 72.5746 95.6162 69.6529 95.6162 66.0127C95.6162 62.0863 95.931 58.9774 96.5466 56.6689C97.1679 54.3389 97.9799 52.5988 98.9592 51.4117C99.9804 50.1805 101.113 49.4111 102.355 49.0647L102.362 49.0625C103.705 48.666 105.093 48.4673 106.531 48.4673C107.655 48.4673 108.896 48.6193 110.256 48.9285L110.256 48.9287L110.269 48.9312C111.421 49.1617 112.446 49.5872 113.349 50.206C112.659 50.9489 112.125 51.7465 111.756 52.5995C111.325 53.5939 111.099 54.5461 111.099 55.4507C111.099 56.9283 111.584 58.217 112.554 59.2907L112.554 59.2908L112.56 59.2971C113.585 60.3929 114.957 60.9238 116.619 60.9238C117.243 60.9238 117.892 60.8198 118.563 60.6186C119.254 60.4113 119.878 60.0823 120.434 59.6324C121.032 59.1737 121.517 58.5796 121.893 57.8614L121.893 57.8614L121.897 57.853C122.288 57.0712 122.471 56.1373 122.471 55.0718C122.471 53.5571 122.066 52.1127 121.266 50.7459C120.469 49.3846 119.361 48.1976 117.954 47.1828C116.544 46.1669 114.868 45.3715 112.931 44.7901C111.013 44.1731 108.91 43.8677 106.625 43.8677C103.406 43.8677 100.462 44.4636 97.8013 45.6637C95.1845 46.8268 92.934 48.4287 91.0552 50.4691C89.1777 52.4766 87.7238 54.8375 86.6919 57.5461L86.6901 57.551C85.6896 60.2621 85.1909 63.147 85.1909 66.2021C85.1909 69.1316 85.674 71.9062 86.6429 74.5223C87.6111 77.1362 88.9851 79.4335 90.7663 81.409L90.7694 81.4124C92.5851 83.3902 94.772 84.9603 97.3244 86.1234L97.3244 86.1235L97.3313 86.1265C99.9291 87.2631 102.841 87.8262 106.057 87.8262C110.696 87.8262 114.514 86.584 117.464 84.0598C120.443 81.5389 122.443 77.8297 123.502 72.9871Z" fill="black" stroke="black"/>
</svg>
